<?xml version="1.0" encoding="UTF-8"?>
<svg id="Layer_1" data-name="Layer 1" xmlns="http://www.w3.org/2000/svg" viewBox="0 0 32 32">
  <defs>
    <style>
      .cls-1 {
        fill: #231f20;
      }
    </style>
  </defs>
  <path class="cls-1" d="M20.84,9.09h-9.68c-.96,0-1.73.78-1.73,1.73v9.67c0,.96.78,1.73,1.73,1.73h9.68c.96,0,1.73-.78,1.73-1.73v-9.67c0-.96-.78-1.73-1.73-1.73ZM22.07,20.49c0,.68-.55,1.23-1.23,1.23h-9.68c-.68,0-1.23-.55-1.23-1.23v-9.67c0-.68.55-1.23,1.23-1.23h9.68c.68,0,1.23.55,1.23,1.23v9.67Z"/>
  <path class="cls-1" d="M15.06,13.23l-1.94,4.68c-.05.13,0,.27.14.33.03.01.06.02.1.02.1,0,.19-.06.23-.15l.74-1.79h1.94l.74,1.79c.05.13.2.19.33.14.13-.05.19-.2.14-.33l-1.94-4.68c-.08-.19-.38-.19-.46,0ZM14.53,15.82l.76-1.84.76,1.84h-1.52Z"/>
  <path class="cls-1" d="M18.67,13.07c-.14,0-.25.11-.25.25v4.68c0,.14.11.25.25.25s.25-.11.25-.25v-4.68c0-.14-.11-.25-.25-.25Z"/>
  <path class="cls-1" d="M30.38,18.11c-.35,0-.66.14-.89.36-.65-.48-1.3-.97-1.96-1.45-.04-.03-.09-.05-.15-.05h-2.26v-1.07h3.16c.14,0,.25-.11.25-.25s-.11-.25-.25-.25h-3.16v-1.08h2.26c.05,0,.1-.02.15-.05.65-.47,1.29-.95,1.94-1.43.24.23.56.37.91.37.73,0,1.32-.59,1.32-1.32s-.59-1.32-1.32-1.32-1.32.59-1.32,1.32c0,.19.05.37.12.54-.63.47-1.25.93-1.88,1.39h-2.17v-1.97h1.59c.14,0,.25-.11.25-.25s-.11-.25-.25-.25h-1.59v-2.21h1.59c.14,0,.25-.11.25-.25s-.11-.25-.25-.25h-1.59v-.42c0-.96-.78-1.73-1.73-1.73h-.37v-1.59c0-.14-.11-.25-.25-.25s-.25.11-.25.25v1.59h-2.21v-1.59c0-.14-.11-.25-.25-.25s-.25.11-.25.25v1.59h-1.99v-2.17c.47-.64.94-1.27,1.4-1.89.17.08.36.14.56.14.73,0,1.32-.59,1.32-1.32s-.59-1.32-1.32-1.32-1.32.59-1.32,1.32c0,.35.14.66.36.89-.48.65-.97,1.3-1.45,1.96-.03.04-.05.09-.05.15v2.26h-1.07v-3.16c0-.14-.11-.25-.25-.25s-.25.11-.25.25v3.16h-1.08v-2.26c0-.05-.02-.1-.05-.15-.47-.65-.95-1.29-1.43-1.94.23-.24.37-.56.37-.91,0-.73-.59-1.32-1.32-1.32s-1.32.59-1.32,1.32.59,1.32,1.32,1.32c.19,0,.37-.05.54-.12.47.63.93,1.25,1.39,1.88v2.17h-1.98v-1.59c0-.14-.11-.25-.25-.25s-.25.11-.25.25v1.59h-2.21v-1.59c0-.14-.11-.25-.25-.25s-.25.11-.25.25v1.59h-.35c-.96,0-1.73.78-1.73,1.73v.41h-1.59c-.14,0-.25.11-.25.25s.11.25.25.25h1.59v2.21h-1.59c-.14,0-.25.11-.25.25s.11.25.25.25h1.59v2.01h-2.17c-.64-.47-1.27-.94-1.89-1.4.08-.17.14-.36.14-.56,0-.73-.59-1.32-1.32-1.32s-1.32.59-1.32,1.32.59,1.32,1.32,1.32c.35,0,.66-.14.89-.36.65.48,1.3.97,1.96,1.45.04.03.09.05.15.05h2.26v1.07h-3.16c-.14,0-.25.11-.25.25s.11.25.25.25h3.16v1.08h-2.26c-.05,0-.1.02-.15.05-.65.47-1.29.95-1.94,1.43-.24-.23-.56-.37-.91-.37-.73,0-1.32.59-1.32,1.32s.59,1.32,1.32,1.32,1.32-.59,1.32-1.32c0-.19-.05-.38-.12-.54.63-.47,1.25-.93,1.88-1.39h2.17v1.96h-1.59c-.14,0-.25.11-.25.25s.11.25.25.25h1.59v2.21h-1.59c-.14,0-.25.11-.25.25s.11.25.25.25h1.59v.43c0,.9.7,1.64,1.58,1.72v1.6c0,.14.11.25.25.25s.25-.11.25-.25v-1.59h2.21v1.59c0,.14.11.25.25.25s.25-.11.25-.25v-1.59h2.51v2.17c-.47.64-.94,1.27-1.4,1.89-.17-.08-.36-.14-.56-.14-.73,0-1.32.59-1.32,1.32s.59,1.32,1.32,1.32,1.32-.59,1.32-1.32c0-.35-.14-.66-.36-.89.48-.65.97-1.3,1.45-1.96.03-.04.05-.09.05-.15v-2.26h1.07v3.16c0,.14.11.25.25.25s.25-.11.25-.25v-3.16h1.08v2.26c0,.05.02.1.05.15.47.65.95,1.29,1.43,1.94-.23.24-.37.56-.37.91,0,.73.59,1.32,1.32,1.32s1.32-.59,1.32-1.32-.59-1.32-1.32-1.32c-.19,0-.37.05-.54.12-.47-.63-.93-1.25-1.39-1.88v-2.17h1.46v1.59c0,.14.11.25.25.25s.25-.11.25-.25v-1.59h2.21v1.59c0,.14.11.25.25.25s.25-.11.25-.25v-1.59h.88c.96,0,1.73-.78,1.73-1.73v-.42h1.59c.14,0,.25-.11.25-.25s-.11-.25-.25-.25h-1.59v-2.21h1.59c.14,0,.25-.11.25-.25s-.11-.25-.25-.25h-1.59v-2h2.17c.64.47,1.27.94,1.89,1.4-.08.17-.14.36-.14.56,0,.73.59,1.32,1.32,1.32s1.32-.59,1.32-1.32-.59-1.32-1.32-1.32ZM30.38,11.06c.45,0,.82.37.82.82s-.37.82-.82.82-.82-.37-.82-.82.37-.82.82-.82ZM19.78.4c.45,0,.82.37.82.82s-.37.82-.82.82-.82-.37-.82-.82.37-.82.82-.82ZM11.41,1.23c0-.45.37-.82.82-.82s.82.37.82.82-.37.82-.82.82-.82-.37-.82-.82ZM1.63,12.7c-.45,0-.82-.37-.82-.82s.37-.82.82-.82.82.37.82.82-.37.82-.82.82ZM1.63,20.25c-.45,0-.82-.37-.82-.82s.37-.82.82-.82.82.37.82.82-.37.82-.82.82ZM12.23,30.9c-.45,0-.82-.37-.82-.82s.37-.82.82-.82.82.37.82.82-.37.82-.82.82ZM20.6,30.08c0,.45-.37.82-.82.82s-.82-.37-.82-.82.37-.82.82-.82.82.37.82.82ZM24.62,23.09c0,.68-.55,1.23-1.23,1.23h-14.77c-.68,0-1.23-.55-1.23-1.23v-14.88c0-.68.55-1.23,1.23-1.23h14.77c.68,0,1.23.55,1.23,1.23v14.88ZM30.38,20.25c-.45,0-.82-.37-.82-.82s.37-.82.82-.82.82.37.82.82-.37.82-.82.82Z"/>
</svg>